<?xml version="1.0" encoding="UTF-8" standalone="no"?>
<svg
   viewBox="0 0 40 40"
   width="40"
   height="40"
   version="1.1"
   id="svg18"
   sodipodi:docname="java.svg"
   inkscape:version="1.1 (c68e22c387, 2021-05-23)"
   xmlns:inkscape="http://www.inkscape.org/namespaces/inkscape"
   xmlns:sodipodi="http://sodipodi.sourceforge.net/DTD/sodipodi-0.dtd"
   xmlns="http://www.w3.org/2000/svg"
   xmlns:svg="http://www.w3.org/2000/svg">
  <defs
     id="defs22" />
  <sodipodi:namedview
     id="namedview20"
     pagecolor="#ffffff"
     bordercolor="#666666"
     borderopacity="1.0"
     inkscape:pageshadow="2"
     inkscape:pageopacity="0.0"
     inkscape:pagecheckerboard="0"
     showgrid="false"
     inkscape:zoom="17.333333"
     inkscape:cx="9.6057692"
     inkscape:cy="20.048077"
     inkscape:window-width="1920"
     inkscape:window-height="1017"
     inkscape:window-x="-8"
     inkscape:window-y="32"
     inkscape:window-maximized="1"
     inkscape:current-layer="svg18"
     height="40px" />
  <path
     fill="#1565c0"
     d="m 27.5,21.1 c 1.8,-0.4 3.2,0.7 3.2,2 0,2.9 -4,5.6 -4,5.6 0,0 6.2,-0.7 6.2,-5.5 0,-3.1 -3,-3.9 -5.4,-2.1 z m -3,2.3 c 0,0 1.9,-1.4 2.5,-1.9 -4.8,1 -15.6,1.1 -15.6,0.3 0,-0.8 3.5,-1.6 3.5,-1.6 0,0 -7.8,-0.1 -7.8,2.2 0,2.3 10.2,2.5 17.4,1 z"
     id="path2" />
  <path
     fill="#1565c0"
     d="m 25.6,25.6 c -4.5,1.5 -12.8,1 -10.4,-1 -1.2,0 -3,1 -3,1.9 0,1.9 9,3.3 15.6,0.6 z"
     id="path4" />
  <path
     fill="#1565c0"
     d="m 15.9,28.7 c -1.6,0 -2.7,1.1 -2.7,1.8 0,2.4 9.8,2.6 13.6,0.2 l -2.5,-1.6 c -2.8,1.3 -10.1,1.5 -8.4,-0.4 z"
     id="path6" />
  <path
     fill="#1565c0"
     d="m 33.65,32.6 c 0,-0.9 -1.1,-1.4 -1.4,-1.6 2.2,5.4 -22.3,5 -22.3,1.8 0,-0.7 1.8,-1.4 3.5,-1.1 l -1.4,-0.8 c -3.4,-0.5 -5.7,0.9 -5.7,2.1 0,5.5 27.3,5.3 27.3,-0.4 z"
     id="path8" />
  <path
     fill="#1565c0"
     d="m 32.6,34.6 c -4.1,4.1 -14.7,5.6 -25.2,3.1 10.5,4.5 25.2,1.9 25.2,-3.1 z"
     id="path10" />
  <g
     id="g16"
     transform="translate(-5.2736321,-4)">
    <path
       fill="#f44336"
       d="M 23.6,24.9 C 22.6,23.3 21.9,22 20.9,19.4 19.2,15.2 31.2,11.3 26.3,4 c 2.1,5.1 -7.6,8.2 -8.5,12.5 -0.7,3.9 5.8,8.4 5.8,8.4 z"
       id="path12" />
    <path
       fill="#f44336"
       d="m 24.1,18.7 c 0.9,2.3 3.9,4 0.7,7 6,-2.2 3.5,-5.6 2.2,-7.8 -1.7,-2.6 5.8,-6.8 5.8,-6.8 -5.4,0.6 -9.9,3.2 -8.7,7.6 z"
       id="path14" />
  </g>
</svg>
